<?xml version="1.0" encoding="UTF-8" standalone="no"?>
<!DOCTYPE svg PUBLIC "-//W3C//DTD SVG 1.1//EN" "http://www.w3.org/Graphics/SVG/1.1/DTD/svg11.dtd">
<svg width="100%" height="100%" viewBox="0 0 303 74" version="1.1" xmlns="http://www.w3.org/2000/svg" xmlns:xlink="http://www.w3.org/1999/xlink" xml:space="preserve" xmlns:serif="http://www.serif.com/" style="fill-rule:evenodd;clip-rule:evenodd;stroke-linejoin:round;stroke-miterlimit:2;">
    <path d="M12.881,37.549C8.291,37.549 4.873,36.438 2.627,34.216C0.381,31.995 -0.425,28.955 0.21,25.098L6.509,25.098C6.167,27.295 6.594,29.012 7.79,30.249C8.987,31.486 10.83,32.104 13.32,32.104C15.631,32.104 17.576,31.608 19.155,30.615C20.734,29.622 21.662,28.312 21.938,26.685C22.134,25.448 21.804,24.43 20.95,23.633C20.095,22.835 18.504,22.16 16.177,21.606L12.392,20.703C8.893,19.873 6.399,18.62 4.91,16.943C3.42,15.267 2.895,13.102 3.335,10.449C3.677,8.333 4.519,6.494 5.862,4.932C7.204,3.369 8.926,2.157 11.025,1.294C13.125,0.431 15.485,0 18.105,0C22.207,0 25.324,1.034 27.456,3.101C29.588,5.168 30.402,8.008 29.897,11.621L23.794,11.621C23.973,9.684 23.521,8.175 22.439,7.092C21.356,6.01 19.765,5.469 17.666,5.469C15.615,5.469 13.845,5.957 12.356,6.934C10.867,7.91 9.992,9.163 9.731,10.693C9.536,11.882 9.861,12.838 10.708,13.562C11.554,14.286 13.117,14.917 15.395,15.454L18.96,16.333C22.589,17.179 25.169,18.453 26.699,20.154C28.229,21.855 28.766,24.089 28.31,26.855C27.952,29.053 27.09,30.953 25.722,32.556C24.355,34.159 22.577,35.392 20.388,36.255C18.199,37.118 15.696,37.549 12.881,37.549Z" style="fill-rule:nonzero;"/>
    <path d="M31.484,36.963L37.514,0.586L51.284,0.586C53.937,0.586 56.171,1.07 57.986,2.039C59.8,3.007 61.103,4.37 61.892,6.128C62.681,7.886 62.873,9.961 62.466,12.354C62.075,14.73 61.196,16.781 59.829,18.506C58.462,20.231 56.716,21.558 54.592,22.485C52.468,23.413 50.08,23.877 47.427,23.877L40.102,23.877L37.93,36.963L31.484,36.963ZM41.03,18.359L48.086,18.359C50.25,18.359 52.053,17.81 53.493,16.711C54.934,15.613 55.809,14.111 56.118,12.207C56.444,10.319 56.065,8.83 54.983,7.739C53.9,6.649 52.277,6.104 50.112,6.104L43.056,6.104L41.03,18.359Z" style="fill-rule:nonzero;"/>
    <path d="M62.734,36.963L68.764,0.586L75.21,0.586L70.107,31.372L86.977,31.372L86.05,36.963L62.734,36.963Z" style="fill-rule:nonzero;"/>
    <path d="M102.7,0.586L96.67,36.963L90.224,36.963L96.255,0.586L102.7,0.586Z" style="fill-rule:nonzero;"/>
    <path d="M105.947,6.177L106.875,0.586L135.952,0.586L135.024,6.177L123.745,6.177L118.642,36.963L112.173,36.963L117.275,6.177L105.947,6.177Z" style="fill-rule:nonzero;"/>
    <path d="M134.121,36.963L140.127,0.586L154.043,0.586C157.868,0.586 160.712,1.493 162.576,3.308C164.439,5.123 165.127,7.503 164.639,10.449C164.313,12.451 163.467,14.083 162.099,15.344C160.732,16.606 159.031,17.505 156.997,18.042L156.997,18.066C159.113,18.343 160.797,19.25 162.051,20.789C163.304,22.327 163.711,24.438 163.271,27.124C162.783,30.086 161.334,32.467 158.926,34.265C156.517,36.064 153.196,36.963 148.965,36.963L134.121,36.963ZM141.323,31.714L148.891,31.714C151.105,31.714 152.903,31.246 154.287,30.31C155.67,29.374 156.509,28.052 156.802,26.343C157.078,24.699 156.716,23.405 155.715,22.461C154.714,21.517 153.139,21.045 150.991,21.045L143.105,21.045L141.323,31.714ZM143.935,15.991L151.284,15.991C153.123,15.991 154.665,15.515 155.91,14.563C157.156,13.611 157.908,12.337 158.169,10.742C158.413,9.229 158.096,8.032 157.217,7.153C156.338,6.274 154.971,5.835 153.115,5.835L145.62,5.835L143.935,15.991Z" style="fill-rule:nonzero;"/>
    <path d="M182.168,37.549C179.271,37.549 176.736,36.934 174.563,35.706C172.39,34.477 170.705,32.731 169.509,30.469C168.313,28.206 167.715,25.545 167.715,22.485C167.715,19.572 168.191,16.768 169.143,14.075C170.095,11.381 171.454,8.976 173.22,6.86C174.986,4.744 177.094,3.072 179.543,1.843C181.993,0.614 184.715,0 187.71,0C190.591,0 193.118,0.614 195.29,1.843C197.463,3.072 199.148,4.818 200.344,7.08C201.54,9.342 202.139,12.012 202.139,15.088C202.139,18.05 201.658,20.874 200.698,23.56C199.738,26.245 198.371,28.638 196.597,30.737C194.822,32.837 192.711,34.497 190.261,35.718C187.812,36.938 185.114,37.549 182.168,37.549ZM182.436,31.763C184.52,31.763 186.379,31.283 188.015,30.322C189.651,29.362 191.042,28.08 192.19,26.477C193.337,24.874 194.212,23.088 194.814,21.118C195.417,19.149 195.718,17.155 195.718,15.137C195.718,12.093 194.953,9.774 193.423,8.179C191.893,6.584 189.891,5.786 187.417,5.786C185.35,5.786 183.498,6.266 181.863,7.227C180.227,8.187 178.835,9.473 177.688,11.084C176.54,12.695 175.661,14.486 175.051,16.455C174.441,18.424 174.136,20.418 174.136,22.437C174.136,25.464 174.901,27.775 176.43,29.37C177.96,30.965 179.962,31.763 182.436,31.763Z" style="fill-rule:nonzero;"/>
    <path d="M199.16,36.963L218.179,0.586L226.284,0.586L233.193,36.963L226.308,36.963L224.868,28.271L210.757,28.271L206.338,36.963L199.16,36.963ZM213.442,22.974L223.989,22.974L223.135,17.847C222.874,16.17 222.614,14.421 222.353,12.598C222.093,10.775 221.808,8.716 221.499,6.421C220.441,8.716 219.477,10.775 218.606,12.598C217.735,14.421 216.885,16.17 216.055,17.847L213.442,22.974Z" style="fill-rule:nonzero;"/>
    <path d="M236.538,36.963L242.568,0.586L256.631,0.586C260.618,0.586 263.629,1.632 265.664,3.723C267.698,5.815 268.423,8.643 267.837,12.207C267.414,14.681 266.445,16.805 264.931,18.579C263.418,20.353 261.505,21.68 259.194,22.559L264.394,36.963L257.705,36.963L253.066,23.73L245.18,23.73L242.983,36.963L236.538,36.963ZM246.059,18.408L253.457,18.408C255.622,18.408 257.42,17.83 258.852,16.675C260.285,15.519 261.164,13.989 261.489,12.085C261.798,10.197 261.416,8.72 260.342,7.654C259.267,6.588 257.648,6.055 255.483,6.055L248.11,6.055L246.059,18.408Z" style="fill-rule:nonzero;"/>
    <path d="M282.119,36.963L268.74,36.963L274.77,0.586L286.977,0.586C290.591,0.586 293.614,1.322 296.047,2.795C298.48,4.268 300.206,6.36 301.223,9.07C302.24,11.78 302.44,14.998 301.821,18.726C301.203,22.485 300.051,25.728 298.367,28.455C296.682,31.181 294.481,33.28 291.763,34.753C289.044,36.226 285.83,36.963 282.119,36.963ZM276.113,31.445L281.582,31.445C285.537,31.445 288.65,30.334 290.92,28.113C293.191,25.891 294.66,22.762 295.327,18.726C295.994,14.722 295.669,11.617 294.35,9.412C293.032,7.206 290.452,6.104 286.611,6.104L280.312,6.104L276.113,31.445Z" style="fill-rule:nonzero;"/>
    <path d="M10.476,43.213L10.476,73.08L7.85,73.08L7.85,45.999L7.81,45.999L0.674,50.729L0.674,47.923L7.73,43.213L10.476,43.213Z" style="fill-rule:nonzero;"/>
    <path d="M17.933,73.38C17.358,73.38 16.874,73.183 16.479,72.789C16.085,72.395 15.888,71.917 15.888,71.356C15.888,70.781 16.085,70.3 16.479,69.912C16.874,69.525 17.358,69.331 17.933,69.331C18.494,69.331 18.972,69.525 19.366,69.912C19.76,70.3 19.957,70.781 19.957,71.356C19.957,71.917 19.76,72.395 19.366,72.789C18.972,73.183 18.494,73.38 17.933,73.38Z" style="fill-rule:nonzero;"/>
    <path d="M32.946,73.5C30.487,73.5 28.446,72.799 26.823,71.396C25.199,69.993 24.253,68.142 23.986,65.843L26.632,65.843C26.913,67.42 27.594,68.683 28.677,69.632C29.759,70.581 31.129,71.055 32.786,71.055C35.445,71.055 37.473,69.869 38.87,67.497C40.266,65.125 40.951,61.861 40.924,57.705L40.884,57.705C40.296,59.055 39.29,60.137 37.867,60.952C36.444,61.768 34.851,62.175 33.087,62.175C31.323,62.175 29.732,61.757 28.316,60.922C26.899,60.087 25.777,58.941 24.948,57.485C24.12,56.028 23.706,54.378 23.706,52.533C23.706,50.663 24.116,48.996 24.938,47.532C25.76,46.069 26.903,44.913 28.366,44.064C29.829,43.216 31.516,42.792 33.427,42.792C36.554,42.792 39.027,43.994 40.844,46.4C42.661,48.805 43.57,52.293 43.57,56.863C43.57,59.202 43.366,61.38 42.959,63.398C42.551,65.416 41.923,67.183 41.074,68.7C40.226,70.216 39.13,71.396 37.787,72.238C36.444,73.08 34.83,73.5 32.946,73.5ZM33.407,59.73C34.784,59.73 36.023,59.396 37.126,58.727C38.228,58.059 39.087,57.164 39.701,56.041C40.316,54.919 40.57,53.683 40.463,52.333C40.343,50.917 39.959,49.677 39.311,48.615C38.662,47.552 37.831,46.724 36.815,46.129C35.799,45.534 34.67,45.237 33.427,45.237C32.091,45.237 30.888,45.561 29.819,46.209C28.75,46.857 27.905,47.733 27.284,48.835C26.662,49.938 26.351,51.17 26.351,52.533C26.351,53.883 26.662,55.103 27.284,56.192C27.905,57.281 28.75,58.143 29.819,58.777C30.888,59.412 32.084,59.73 33.407,59.73Z" style="fill-rule:nonzero;"/>
    <path d="M48.301,73.38C47.726,73.38 47.242,73.183 46.847,72.789C46.453,72.395 46.256,71.917 46.256,71.356C46.256,70.781 46.453,70.3 46.847,69.912C47.242,69.525 47.726,69.331 48.301,69.331C48.862,69.331 49.34,69.525 49.734,69.912C50.128,70.3 50.325,70.781 50.325,71.356C50.325,71.917 50.128,72.395 49.734,72.789C49.34,73.183 48.862,73.38 48.301,73.38Z" style="fill-rule:nonzero;"/>
    <path d="M54.515,73.08L54.515,70.754L65.098,60.792C66.461,59.496 67.564,58.36 68.406,57.384C69.248,56.409 69.862,55.477 70.25,54.588C70.637,53.699 70.831,52.734 70.831,51.692C70.831,49.741 70.223,48.17 69.007,46.981C67.791,45.792 66.154,45.197 64.096,45.197C61.958,45.197 60.267,45.852 59.025,47.161C57.782,48.471 57.161,50.195 57.161,52.333L54.595,52.333C54.595,50.476 54.992,48.825 55.787,47.382C56.583,45.939 57.692,44.806 59.115,43.984C60.538,43.162 62.198,42.752 64.096,42.752C65.913,42.752 67.524,43.132 68.927,43.894C70.33,44.656 71.429,45.701 72.224,47.031C73.019,48.361 73.417,49.888 73.417,51.611C73.417,52.841 73.19,54.01 72.735,55.119C72.281,56.228 71.573,57.364 70.611,58.527C69.649,59.69 68.412,60.979 66.902,62.396L58.223,70.594L58.223,70.634L73.718,70.634L73.718,73.08L54.515,73.08Z" style="fill-rule:nonzero;"/>
    <path d="M87.248,73.5C84.121,73.5 81.645,72.298 79.821,69.892C77.997,67.487 77.085,63.999 77.085,59.429C77.085,57.09 77.286,54.912 77.687,52.894C78.087,50.876 78.712,49.109 79.561,47.592C80.409,46.076 81.502,44.896 82.838,44.054C84.174,43.213 85.785,42.792 87.669,42.792C90.114,42.792 92.142,43.493 93.753,44.896C95.363,46.3 96.302,48.15 96.569,50.449L93.923,50.449C93.642,48.872 92.967,47.609 91.898,46.66C90.829,45.712 89.466,45.237 87.809,45.237C85.15,45.237 83.125,46.423 81.736,48.795C80.346,51.167 79.664,54.431 79.691,58.587L79.731,58.587C80.306,57.237 81.315,56.138 82.758,55.29C84.201,54.441 85.805,54.017 87.569,54.017C89.346,54.017 90.94,54.438 92.349,55.28C93.759,56.122 94.878,57.274 95.707,58.737C96.535,60.201 96.95,61.861 96.95,63.719C96.95,65.576 96.539,67.243 95.717,68.72C94.895,70.196 93.756,71.362 92.299,72.218C90.843,73.073 89.159,73.5 87.248,73.5ZM87.248,71.055C88.571,71.055 89.767,70.724 90.836,70.063C91.905,69.401 92.754,68.516 93.382,67.407C94.01,66.298 94.324,65.068 94.324,63.719C94.324,62.355 94.01,61.126 93.382,60.03C92.754,58.934 91.908,58.066 90.846,57.424C89.784,56.783 88.584,56.462 87.248,56.462C85.885,56.462 84.649,56.8 83.54,57.475C82.431,58.149 81.569,59.051 80.954,60.181C80.339,61.31 80.085,62.549 80.192,63.899C80.326,65.315 80.713,66.562 81.355,67.637C81.996,68.713 82.825,69.552 83.84,70.153C84.856,70.754 85.992,71.055 87.248,71.055Z" style="fill-rule:nonzero;"/>
</svg>
