<svg xmlns="http://www.w3.org/2000/svg" width="50" height="50"><rect width="100%" height="100%" fill="#2b2b31"/><path fill="#fff" d="M36.445 4.336q4.57-2.226 8.282-1.406.312.039.507.312l.118.586q-.743 3.75-4.649 7.07l-.351.157q-2.735.468-4.258-1.836h-.04q-1.445-2.265.04-4.57zM50 23.125q-2.734-1.836-4.453-5.742l-.078-.39q.273-2.736 2.89-3.595L50 13.203zM29.766 0q-1.954 2.812-6.211 4.414l-.39.04q-2.736-.43-3.438-3.126L19.609 0zM0 13.203q1.564.04 2.812 1.445l.196.391q.937 5-.82 8.36l-.47.39-.585-.039L0 23.086zM19.61 50q.076-1.757 1.68-3.008l.39-.156q5.078-.625 8.28 1.367l.352.469-.078.586-.468.742zm17.54-18.36q-.978-2.538.976-4.492a.7.7 0 0 1 .352-.195q4.96-1.29 8.398.313l.43.43v.585q-1.485 3.555-5.977 5.938l-.39.078q-2.814-.078-3.79-2.617zm7.883 15.43q-5.117.47-8.281-1.68a.71.71 0 0 1-.313-.507.66.66 0 0 1 .079-.547q2.03-3.281 6.914-4.883h.39q2.735.508 3.32 3.203.509 2.696-1.718 4.297l-.39.117m-10.93-13.086q2.734.547 3.32 3.243v.039q.468 2.656-1.797 4.257l-.39.118q-5.157.39-8.243-1.797a.71.71 0 0 1-.312-.508.77.77 0 0 1 .078-.586q2.07-3.242 6.953-4.766zM10.86 6.054q-3.045 4.063-6.757 5.04l-.586-.078-.352-.47q-1.095-3.67.938-8.358l.234-.313q2.265-1.68 4.61-.352h.038q2.383 1.446 2.032 4.18l-.157.352m2.149 11.836q-1.368-4.922.078-8.399a.71.71 0 0 1 .39-.43q.274-.156.587 0 3.593 1.329 6.132 5.782l.078.39q0 2.734-2.5 3.868-2.539.975-4.53-.86zm22.383-3.868q.351 5.04-1.758 8.204l-.508.351-.586-.117q-3.242-2.07-4.805-6.914v-.39q.547-2.735 3.204-3.282h.039q2.656-.508 4.257 1.758zM1.68 43.008q3.827-3.36 7.617-3.555l.547.195.273.547q.314 3.828-2.578 8.008l-.312.234q-2.54 1.211-4.61-.585-2.031-1.875-1.172-4.493zm9.922-10.82q-5.079-.978-7.5-3.907a.63.63 0 0 1-.196-.547.8.8 0 0 1 .274-.547q2.85-2.577 7.968-2.812.235 0 .43.117 2.422 1.25 2.266 3.985v.039q-.234 2.734-2.852 3.632zm13.437-10.743q4.766 1.758 6.719 5l.117.586-.352.469q-3.202 2.148-8.242 1.523l-.39-.156q-2.228-1.68-1.641-4.336v-.039q.665-2.656 3.398-3.086zm-7.773 14.452q2.617-1.015 4.53.86h.04q1.876 1.953.898 4.57l-.273.313q-4.024 3.125-7.813 3.086l-.546-.196a.75.75 0 0 1-.235-.547q-.117-3.867 3.086-7.851z"/></svg>