<?xml version="1.0" encoding="UTF-8" standalone="no"?>
<!DOCTYPE svg PUBLIC "-//W3C//DTD SVG 1.1//EN" "http://www.w3.org/Graphics/SVG/1.1/DTD/svg11.dtd">
<svg width="100%" height="100%" viewBox="0 0 303 74" version="1.1" xmlns="http://www.w3.org/2000/svg" xmlns:xlink="http://www.w3.org/1999/xlink" xml:space="preserve" xmlns:serif="http://www.serif.com/" style="fill-rule:evenodd;clip-rule:evenodd;stroke-linejoin:round;stroke-miterlimit:2;">
    <path d="M12.881,37.549C8.291,37.549 4.873,36.438 2.627,34.216C0.381,31.995 -0.425,28.955 0.21,25.098L6.509,25.098C6.167,27.295 6.594,29.012 7.79,30.249C8.987,31.486 10.83,32.104 13.32,32.104C15.631,32.104 17.576,31.608 19.155,30.615C20.734,29.622 21.662,28.312 21.938,26.685C22.134,25.448 21.804,24.43 20.95,23.633C20.095,22.835 18.504,22.16 16.177,21.606L12.392,20.703C8.893,19.873 6.399,18.62 4.91,16.943C3.42,15.267 2.895,13.102 3.335,10.449C3.677,8.333 4.519,6.494 5.862,4.932C7.204,3.369 8.926,2.157 11.025,1.294C13.125,0.431 15.485,0 18.105,0C22.207,0 25.324,1.034 27.456,3.101C29.588,5.168 30.402,8.008 29.897,11.621L23.794,11.621C23.973,9.684 23.521,8.175 22.439,7.092C21.356,6.01 19.765,5.469 17.666,5.469C15.615,5.469 13.845,5.957 12.356,6.934C10.867,7.91 9.992,9.163 9.731,10.693C9.536,11.882 9.861,12.838 10.708,13.562C11.554,14.286 13.117,14.917 15.395,15.454L18.96,16.333C22.589,17.179 25.169,18.453 26.699,20.154C28.229,21.855 28.766,24.089 28.31,26.855C27.952,29.053 27.09,30.953 25.722,32.556C24.355,34.159 22.577,35.392 20.388,36.255C18.199,37.118 15.696,37.549 12.881,37.549Z" style="fill-rule:nonzero;"/>
    <path d="M31.484,36.963L37.514,0.586L51.284,0.586C53.937,0.586 56.171,1.07 57.986,2.039C59.8,3.007 61.103,4.37 61.892,6.128C62.681,7.886 62.873,9.961 62.466,12.354C62.075,14.73 61.196,16.781 59.829,18.506C58.462,20.231 56.716,21.558 54.592,22.485C52.468,23.413 50.08,23.877 47.427,23.877L40.102,23.877L37.93,36.963L31.484,36.963ZM41.03,18.359L48.086,18.359C50.25,18.359 52.053,17.81 53.493,16.711C54.934,15.613 55.809,14.111 56.118,12.207C56.444,10.319 56.065,8.83 54.983,7.739C53.9,6.649 52.277,6.104 50.112,6.104L43.056,6.104L41.03,18.359Z" style="fill-rule:nonzero;"/>
    <path d="M62.734,36.963L68.764,0.586L75.21,0.586L70.107,31.372L86.977,31.372L86.05,36.963L62.734,36.963Z" style="fill-rule:nonzero;"/>
    <path d="M102.7,0.586L96.67,36.963L90.224,36.963L96.255,0.586L102.7,0.586Z" style="fill-rule:nonzero;"/>
    <path d="M105.947,6.177L106.875,0.586L135.952,0.586L135.024,6.177L123.745,6.177L118.642,36.963L112.173,36.963L117.275,6.177L105.947,6.177Z" style="fill-rule:nonzero;"/>
    <path d="M134.121,36.963L140.127,0.586L154.043,0.586C157.868,0.586 160.712,1.493 162.576,3.308C164.439,5.123 165.127,7.503 164.639,10.449C164.313,12.451 163.467,14.083 162.099,15.344C160.732,16.606 159.031,17.505 156.997,18.042L156.997,18.066C159.113,18.343 160.797,19.25 162.051,20.789C163.304,22.327 163.711,24.438 163.271,27.124C162.783,30.086 161.334,32.467 158.926,34.265C156.517,36.064 153.196,36.963 148.965,36.963L134.121,36.963ZM141.323,31.714L148.891,31.714C151.105,31.714 152.903,31.246 154.287,30.31C155.67,29.374 156.509,28.052 156.802,26.343C157.078,24.699 156.716,23.405 155.715,22.461C154.714,21.517 153.139,21.045 150.991,21.045L143.105,21.045L141.323,31.714ZM143.935,15.991L151.284,15.991C153.123,15.991 154.665,15.515 155.91,14.563C157.156,13.611 157.908,12.337 158.169,10.742C158.413,9.229 158.096,8.032 157.217,7.153C156.338,6.274 154.971,5.835 153.115,5.835L145.62,5.835L143.935,15.991Z" style="fill-rule:nonzero;"/>
    <path d="M182.168,37.549C179.271,37.549 176.736,36.934 174.563,35.706C172.39,34.477 170.705,32.731 169.509,30.469C168.313,28.206 167.715,25.545 167.715,22.485C167.715,19.572 168.191,16.768 169.143,14.075C170.095,11.381 171.454,8.976 173.22,6.86C174.986,4.744 177.094,3.072 179.543,1.843C181.993,0.614 184.715,0 187.71,0C190.591,0 193.118,0.614 195.29,1.843C197.463,3.072 199.148,4.818 200.344,7.08C201.54,9.342 202.139,12.012 202.139,15.088C202.139,18.05 201.658,20.874 200.698,23.56C199.738,26.245 198.371,28.638 196.597,30.737C194.822,32.837 192.711,34.497 190.261,35.718C187.812,36.938 185.114,37.549 182.168,37.549ZM182.436,31.763C184.52,31.763 186.379,31.283 188.015,30.322C189.651,29.362 191.042,28.08 192.19,26.477C193.337,24.874 194.212,23.088 194.814,21.118C195.417,19.149 195.718,17.155 195.718,15.137C195.718,12.093 194.953,9.774 193.423,8.179C191.893,6.584 189.891,5.786 187.417,5.786C185.35,5.786 183.498,6.266 181.863,7.227C180.227,8.187 178.835,9.473 177.688,11.084C176.54,12.695 175.661,14.486 175.051,16.455C174.441,18.424 174.136,20.418 174.136,22.437C174.136,25.464 174.901,27.775 176.43,29.37C177.96,30.965 179.962,31.763 182.436,31.763Z" style="fill-rule:nonzero;"/>
    <path d="M199.16,36.963L218.179,0.586L226.284,0.586L233.193,36.963L226.308,36.963L224.868,28.271L210.757,28.271L206.338,36.963L199.16,36.963ZM213.442,22.974L223.989,22.974L223.135,17.847C222.874,16.17 222.614,14.421 222.353,12.598C222.093,10.775 221.808,8.716 221.499,6.421C220.441,8.716 219.477,10.775 218.606,12.598C217.735,14.421 216.885,16.17 216.055,17.847L213.442,22.974Z" style="fill-rule:nonzero;"/>
    <path d="M236.538,36.963L242.568,0.586L256.631,0.586C260.618,0.586 263.629,1.632 265.664,3.723C267.698,5.815 268.423,8.643 267.837,12.207C267.414,14.681 266.445,16.805 264.931,18.579C263.418,20.353 261.505,21.68 259.194,22.559L264.394,36.963L257.705,36.963L253.066,23.73L245.18,23.73L242.983,36.963L236.538,36.963ZM246.059,18.408L253.457,18.408C255.622,18.408 257.42,17.83 258.852,16.675C260.285,15.519 261.164,13.989 261.489,12.085C261.798,10.197 261.416,8.72 260.342,7.654C259.267,6.588 257.648,6.055 255.483,6.055L248.11,6.055L246.059,18.408Z" style="fill-rule:nonzero;"/>
    <path d="M282.119,36.963L268.74,36.963L274.77,0.586L286.977,0.586C290.591,0.586 293.614,1.322 296.047,2.795C298.48,4.268 300.206,6.36 301.223,9.07C302.24,11.78 302.44,14.998 301.821,18.726C301.203,22.485 300.051,25.728 298.367,28.455C296.682,31.181 294.481,33.28 291.763,34.753C289.044,36.226 285.83,36.963 282.119,36.963ZM276.113,31.445L281.582,31.445C285.537,31.445 288.65,30.334 290.92,28.113C293.191,25.891 294.66,22.762 295.327,18.726C295.994,14.722 295.669,11.617 294.35,9.412C293.032,7.206 290.452,6.104 286.611,6.104L280.312,6.104L276.113,31.445Z" style="fill-rule:nonzero;"/>
    <path d="M215.698,43.213L215.698,73.08L213.072,73.08L213.072,45.999L213.032,45.999L205.896,50.729L205.896,47.923L212.952,43.213L215.698,43.213Z" style="fill-rule:nonzero;"/>
    <path d="M223.155,73.38C222.58,73.38 222.096,73.183 221.702,72.789C221.307,72.395 221.11,71.917 221.11,71.356C221.11,70.781 221.307,70.3 221.702,69.912C222.096,69.525 222.58,69.331 223.155,69.331C223.716,69.331 224.194,69.525 224.588,69.912C224.982,70.3 225.179,70.781 225.179,71.356C225.179,71.917 224.982,72.395 224.588,72.789C224.194,73.183 223.716,73.38 223.155,73.38Z" style="fill-rule:nonzero;"/>
    <path d="M238.168,73.5C235.71,73.5 233.668,72.799 232.045,71.396C230.421,69.993 229.476,68.142 229.208,65.843L231.854,65.843C232.135,67.42 232.816,68.683 233.899,69.632C234.981,70.581 236.351,71.055 238.008,71.055C240.667,71.055 242.695,69.869 244.092,67.497C245.488,65.125 246.173,61.861 246.146,57.705L246.106,57.705C245.518,59.055 244.513,60.137 243.089,60.952C241.666,61.768 240.073,62.175 238.309,62.175C236.545,62.175 234.955,61.757 233.538,60.922C232.122,60.087 230.999,58.941 230.17,57.485C229.342,56.028 228.928,54.378 228.928,52.533C228.928,50.663 229.339,48.996 230.16,47.532C230.982,46.069 232.125,44.913 233.588,44.064C235.051,43.216 236.739,42.792 238.65,42.792C241.777,42.792 244.249,43.994 246.066,46.4C247.884,48.805 248.792,52.293 248.792,56.863C248.792,59.202 248.588,61.38 248.181,63.398C247.773,65.416 247.145,67.183 246.297,68.7C245.448,70.216 244.352,71.396 243.009,72.238C241.666,73.08 240.053,73.5 238.168,73.5ZM238.629,59.73C240.006,59.73 241.245,59.396 242.348,58.727C243.45,58.059 244.309,57.164 244.924,56.041C245.538,54.919 245.792,53.683 245.685,52.333C245.565,50.917 245.181,49.677 244.533,48.615C243.885,47.552 243.053,46.724 242.037,46.129C241.021,45.534 239.892,45.237 238.65,45.237C237.313,45.237 236.11,45.561 235.041,46.209C233.972,46.857 233.127,47.733 232.506,48.835C231.884,49.938 231.574,51.17 231.574,52.533C231.574,53.883 231.884,55.103 232.506,56.192C233.127,57.281 233.972,58.143 235.041,58.777C236.11,59.412 237.306,59.73 238.629,59.73Z" style="fill-rule:nonzero;"/>
    <path d="M253.523,73.38C252.948,73.38 252.464,73.183 252.07,72.789C251.675,72.395 251.478,71.917 251.478,71.356C251.478,70.781 251.675,70.3 252.07,69.912C252.464,69.525 252.948,69.331 253.523,69.331C254.084,69.331 254.562,69.525 254.956,69.912C255.35,70.3 255.547,70.781 255.547,71.356C255.547,71.917 255.35,72.395 254.956,72.789C254.562,73.183 254.084,73.38 253.523,73.38Z" style="fill-rule:nonzero;"/>
    <path d="M259.737,73.08L259.737,70.754L270.321,60.792C271.684,59.496 272.786,58.36 273.628,57.384C274.47,56.409 275.085,55.477 275.472,54.588C275.86,53.699 276.053,52.734 276.053,51.692C276.053,49.741 275.445,48.17 274.229,46.981C273.013,45.792 271.376,45.197 269.318,45.197C267.18,45.197 265.49,45.852 264.247,47.161C263.004,48.471 262.383,50.195 262.383,52.333L259.817,52.333C259.817,50.476 260.215,48.825 261.01,47.382C261.805,45.939 262.914,44.806 264.337,43.984C265.76,43.162 267.421,42.752 269.318,42.752C271.136,42.752 272.746,43.132 274.149,43.894C275.552,44.656 276.651,45.701 277.446,47.031C278.242,48.361 278.639,49.888 278.639,51.611C278.639,52.841 278.412,54.01 277.958,55.119C277.503,56.228 276.795,57.364 275.833,58.527C274.871,59.69 273.635,60.979 272.125,62.396L263.445,70.594L263.445,70.634L278.94,70.634L278.94,73.08L259.737,73.08Z" style="fill-rule:nonzero;"/>
    <path d="M292.47,73.5C289.343,73.5 286.868,72.298 285.044,69.892C283.219,67.487 282.307,63.999 282.307,59.429C282.307,57.09 282.508,54.912 282.909,52.894C283.31,50.876 283.934,49.109 284.783,47.592C285.631,46.076 286.724,44.896 288.06,44.054C289.397,43.213 291.007,42.792 292.891,42.792C295.337,42.792 297.364,43.493 298.975,44.896C300.585,46.3 301.524,48.15 301.791,50.449L299.145,50.449C298.864,48.872 298.19,47.609 297.121,46.66C296.052,45.712 294.688,45.237 293.031,45.237C290.372,45.237 288.348,46.423 286.958,48.795C285.568,51.167 284.886,54.431 284.913,58.587L284.953,58.587C285.528,57.237 286.537,56.138 287.98,55.29C289.423,54.441 291.027,54.017 292.791,54.017C294.568,54.017 296.162,54.438 297.572,55.28C298.981,56.122 300.101,57.274 300.929,58.737C301.758,60.201 302.172,61.861 302.172,63.719C302.172,65.576 301.761,67.243 300.939,68.72C300.117,70.196 298.978,71.362 297.521,72.218C296.065,73.073 294.381,73.5 292.47,73.5ZM292.47,71.055C293.793,71.055 294.989,70.724 296.058,70.063C297.127,69.401 297.976,68.516 298.604,67.407C299.232,66.298 299.546,65.068 299.546,63.719C299.546,62.355 299.232,61.126 298.604,60.03C297.976,58.934 297.131,58.066 296.068,57.424C295.006,56.783 293.806,56.462 292.47,56.462C291.107,56.462 289.871,56.8 288.762,57.475C287.653,58.149 286.791,59.051 286.176,60.181C285.561,61.31 285.307,62.549 285.414,63.899C285.548,65.315 285.936,66.562 286.577,67.637C287.218,68.713 288.047,69.552 289.063,70.153C290.078,70.754 291.214,71.055 292.47,71.055Z" style="fill-rule:nonzero;"/>
</svg>
