<?xml version="1.0" encoding="UTF-8" standalone="no"?>
<!DOCTYPE svg PUBLIC "-//W3C//DTD SVG 1.1//EN" "http://www.w3.org/Graphics/SVG/1.1/DTD/svg11.dtd">
<svg width="100%" height="100%" viewBox="0 0 970 851" version="1.1" xmlns="http://www.w3.org/2000/svg" xmlns:xlink="http://www.w3.org/1999/xlink" xml:space="preserve" xmlns:serif="http://www.serif.com/" style="fill-rule:evenodd;clip-rule:evenodd;stroke-linejoin:round;stroke-miterlimit:2;">
    <path d="M56.6,607.927C41.589,607.927 27.192,601.964 16.578,591.35C5.963,580.735 0,566.339 -0,551.327C0,435.471 0,172.47 0,56.607C-0,41.594 5.964,27.196 16.58,16.58C27.196,5.964 41.594,0 56.607,-0L691.227,-0C694.959,0 698.539,1.483 701.178,4.122C703.817,6.761 705.3,10.341 705.3,14.073C705.3,35.708 705.3,76.9 705.3,98.535C705.3,102.267 703.817,105.847 701.178,108.486C698.539,111.125 694.959,112.608 691.227,112.608C610.532,112.608 207.376,112.608 126.681,112.608C122.948,112.608 119.369,114.091 116.73,116.73C114.091,119.369 112.608,122.948 112.608,126.681C112.608,151.611 112.608,203.25 112.608,228.18C112.608,231.912 114.091,235.492 116.73,238.131C119.369,240.77 122.948,242.253 126.681,242.253C218.912,242.253 738.628,242.253 912.411,242.253C927.422,242.253 941.819,248.216 952.433,258.831C963.048,269.445 969.011,283.841 969.011,298.853C969.011,414.661 969.011,677.489 969.011,793.427C969.011,824.771 943.602,850.18 912.258,850.18C760.589,850.18 351.863,850.18 270.833,850.18C267.1,850.18 263.521,848.697 260.882,846.058C258.242,843.419 256.76,839.84 256.76,836.107C256.76,814.472 256.76,773.28 256.76,751.645C256.76,747.913 258.242,744.333 260.882,741.694C263.521,739.055 267.1,737.572 270.833,737.572C352.143,737.572 761.02,737.572 842.33,737.572C846.063,737.572 849.642,736.089 852.281,733.45C854.92,730.811 856.403,727.232 856.403,723.499C856.403,698.569 856.403,646.93 856.403,622C856.403,618.268 854.92,614.688 852.281,612.049C849.642,609.41 846.063,607.927 842.33,607.927C750.099,607.927 230.383,607.927 56.6,607.927Z"/>
    <path d="M954.911,0C962.698,0 969.011,6.313 969.011,14.1L969.011,98.508C969.011,106.295 962.698,112.608 954.911,112.608L828.161,112.608C820.374,112.608 814.061,106.295 814.061,98.508L814.061,14.1C814.061,6.313 820.374,0 828.161,0L954.911,0Z"/>
    <path d="M140.85,737.572C148.637,737.572 154.95,743.885 154.95,751.672L154.95,836.08C154.95,843.867 148.637,850.18 140.85,850.18L14.1,850.18C6.313,850.18 0,843.867 -0,836.08L-0,751.672C0,743.885 6.313,737.572 14.1,737.572L140.85,737.572Z"/>
</svg>
